<svg width="24" height="24" viewBox="0 0 24 24" fill="none" xmlns="http://www.w3.org/2000/svg">
    <path d="M23.2857 16.5387C23.6556 16.519 23.9495 16.2198 23.9495 15.8526C23.9495 13.8728 22.3254 12.322 20.2521 12.322H19.5669L18.7294 8.43247C19.5375 8.08893 20.1044 7.29994 20.1044 6.3834C20.1044 5.15226 19.082 4.15063 17.8252 4.15063H14.5855C14.1976 4.15063 13.8832 4.45867 13.8832 4.83863V5.69541H12.1569C11.769 5.69541 11.4546 6.00344 11.4546 6.3834C11.4546 6.76335 11.769 7.07139 12.1569 7.07139H13.8832V7.92817C13.8832 8.30812 14.1976 8.61616 14.5855 8.61616H14.8973C14.3158 9.28897 13.9641 10.1581 13.9641 11.1066V15.0217C13.9641 15.0418 13.9475 15.0581 13.927 15.0581H11.0901C11.0738 15.0581 11.0591 15.0474 11.0545 15.032L10.2897 12.5001C10.9061 12.3388 11.3615 11.7873 11.3615 11.1333C11.3615 9.5804 10.072 8.31707 8.48688 8.31707H2.15935C0.968721 8.31702 0 9.26604 0 10.4325C0 11.4989 0.809673 12.383 1.85832 12.527C0.745876 13.5019 0.0443907 14.918 0.0443907 16.4919V18.6338C0.0443907 19.0137 0.358829 19.3218 0.746673 19.3218H1.35432C1.68141 20.9197 3.1246 22.1274 4.85059 22.1274C6.57658 22.1274 8.01977 20.9197 8.34686 19.3218H16.9377C17.2648 20.9197 18.7079 22.1274 20.4339 22.1274C22.4002 22.1274 24 20.5602 24 18.6338C24 17.8484 23.734 17.1228 23.2857 16.5387ZM22.43 15.1646H20.849C20.7127 15.1491 20.5744 15.1402 20.434 15.1402C20.1823 15.1402 19.9367 15.1662 19.6996 15.215V13.698H20.2521C21.2806 13.698 22.131 14.3037 22.43 15.1646ZM15.2877 5.52657H17.8252C18.3075 5.52657 18.6998 5.91093 18.6998 6.38335C18.6998 6.85577 18.3075 7.24013 17.8252 7.24013H15.2877V5.52657ZM11.0902 16.434H13.9271C14.722 16.434 15.3687 15.8005 15.3687 15.0217V11.1066C15.3687 9.92408 16.2165 8.93181 17.3479 8.68262L18.2951 13.0816V15.8402C17.6078 16.3465 17.1129 17.0901 16.9377 17.9457H9.95566C9.62768 15.4773 7.54445 13.6305 4.94429 13.6305C3.78484 13.6305 2.74393 14.0011 1.92268 14.6382C2.60105 13.3956 3.93849 12.548 5.47468 12.548H8.83966L9.70788 15.4225C9.88769 16.0181 10.4561 16.434 11.0902 16.434ZM1.506 17.9457C1.62872 17.2138 1.94827 16.5536 2.43694 16.042C3.07477 15.3742 3.96521 15.0065 4.9442 15.0065C6.75554 15.0065 8.21884 16.252 8.533 17.9457H1.506V17.9457ZM2.15935 11.172C1.74314 11.172 1.40452 10.8403 1.40452 10.4325C1.40452 10.0247 1.74314 9.69296 2.15935 9.69296H8.48688C9.29753 9.69296 9.95702 10.339 9.95702 11.1332C9.95102 11.1615 9.90471 11.1802 9.8185 11.172C9.23425 11.172 9.40127 11.172 9.27958 11.172C8.44047 11.172 2.16343 11.172 2.15935 11.172ZM4.85059 20.7514C3.90451 20.7514 3.09901 20.1526 2.80679 19.3217H6.89439C6.60217 20.1526 5.79667 20.7514 4.85059 20.7514ZM20.434 20.7514C19.2421 20.7514 18.2724 19.8014 18.2724 18.6337C18.2724 17.4661 19.2421 16.5161 20.434 16.5161C21.6259 16.5161 22.5955 17.4661 22.5955 18.6337C22.5955 19.8014 21.6258 20.7514 20.434 20.7514Z" fill="#333333"/>
    <path d="M20.434 19.3262C20.8244 19.3262 21.1409 19.0162 21.1409 18.6337C21.1409 18.2512 20.8244 17.9412 20.434 17.9412C20.0436 17.9412 19.7271 18.2512 19.7271 18.6337C19.7271 19.0162 20.0436 19.3262 20.434 19.3262Z" fill="#333333"/>
    <path d="M0.732068 6.32276H7.03058C7.41842 6.32276 7.73286 6.01472 7.73286 5.63477C7.73286 5.25481 7.41842 4.94678 7.03058 4.94678H0.732068C0.344223 4.94678 0.0297852 5.25481 0.0297852 5.63477C0.0297852 6.01472 0.344223 6.32276 0.732068 6.32276Z" fill="#333333"/>
    <path d="M3.06459 3.50342H9.41738C9.80523 3.50342 10.1197 3.19539 10.1197 2.81543C10.1197 2.43548 9.80523 2.12744 9.41738 2.12744H3.06459C2.67674 2.12744 2.3623 2.43548 2.3623 2.81543C2.3623 3.19539 2.67674 3.50342 3.06459 3.50342Z" fill="#333333"/>
</svg>
