<svg width="18" height="18" viewBox="0 0 18 18" fill="none" xmlns="http://www.w3.org/2000/svg">
    <circle cx="9" cy="9" r="9" fill="#EBEBEB"/>
    <path d="M11.8293 14C12.6972 14 13.4991 13.6759 14.0875 13.0875C14.7294 12.4456 15.0511 11.5666 14.9934 10.6124C14.9374 9.68668 14.5277 8.7981 13.8399 8.11026C13.2522 7.52255 12.525 7.13977 11.7369 7.0034C11.3418 6.935 11.065 6.65822 10.9966 6.26311C10.8602 5.47499 10.4775 4.74779 9.88975 4.16016C9.20192 3.47232 8.31334 3.06261 7.38766 3.00663C6.43354 2.94881 5.55444 3.27057 4.91251 3.9125C4.27058 4.55443 3.9489 5.43344 4.00664 6.38765C4.06262 7.31333 4.47233 8.20199 5.16017 8.88974C5.7478 9.47746 6.475 9.86015 7.26304 9.99661C7.65823 10.065 7.93493 10.3418 8.00341 10.7369C8.13987 11.525 8.52256 12.2521 9.11027 12.8398C9.79811 13.5277 10.6867 13.9374 11.6124 13.9934C11.6849 13.9977 11.7579 14 11.8293 14ZM7.17131 3.64445C7.22997 3.64445 7.28914 3.6463 7.34864 3.64991C8.11704 3.6964 8.85766 4.03948 9.43405 4.61586C9.92727 5.109 10.248 5.7166 10.3617 6.37305C10.4768 7.03831 10.9617 7.52322 11.627 7.63836C12.2834 7.75199 12.891 8.07275 13.3842 8.56597C13.9605 9.14235 14.3036 9.88298 14.3501 10.6513C14.3966 11.4189 14.1415 12.1222 13.6319 12.6319C13.1652 13.0986 12.525 13.3556 11.8293 13.3556C11.7707 13.3556 11.7109 13.3537 11.6513 13.3501C10.8829 13.3036 10.1423 12.9606 9.56589 12.3841C9.07276 11.891 8.75201 11.2833 8.63837 10.627C8.52315 9.96161 8.03832 9.47679 7.37298 9.36164C6.71661 9.24801 6.10901 8.92726 5.61579 8.43404C5.0394 7.85765 4.69633 7.11703 4.64983 6.34871C4.60342 5.58115 4.85847 4.87779 5.36813 4.36812C5.83835 3.89798 6.47323 3.64445 7.17131 3.64445Z" fill="#333333"/>
    <path d="M7.99325 6.66025C8.00374 6.66025 8.01448 6.65958 8.02505 6.65858C8.03538 6.65765 8.04587 6.65597 8.05619 6.65404C8.06651 6.65186 8.07684 6.64934 8.08691 6.64607C8.09681 6.64305 8.10688 6.63961 8.11653 6.63558C8.12618 6.63147 8.13592 6.62702 8.14515 6.62198C8.15438 6.61712 8.16336 6.61175 8.17217 6.60587C8.18098 6.60008 8.18938 6.59387 8.19752 6.58724C8.20566 6.58053 8.21363 6.57331 8.22118 6.56601C8.28111 6.50609 8.31543 6.42292 8.31543 6.33807C8.31543 6.32758 8.31501 6.31684 8.31392 6.30652C8.31291 6.29594 8.31115 6.28545 8.30922 6.27513C8.30712 6.26481 8.30452 6.25448 8.3015 6.24441C8.29831 6.23451 8.29487 6.22444 8.29076 6.2147C8.28664 6.20514 8.2822 6.19565 8.27724 6.18642C8.27229 6.17694 8.26692 6.16796 8.26113 6.15915C8.25534 6.1505 8.24913 6.14194 8.24242 6.1338C8.23579 6.12558 8.22849 6.11769 8.22118 6.11014C8.21363 6.10283 8.20566 6.09553 8.19752 6.0889C8.18938 6.08219 8.18098 6.07598 8.17217 6.07019C8.16336 6.0644 8.15438 6.05903 8.14515 6.05408C8.13592 6.04912 8.12618 6.04459 8.11653 6.04056C8.10688 6.03645 8.09681 6.03301 8.08691 6.02982C8.07684 6.0268 8.06651 6.0242 8.05619 6.0221C8.04587 6.02017 8.03538 6.01841 8.02505 6.01732C8.00399 6.01539 7.98251 6.01539 7.96169 6.01732C7.95112 6.01841 7.94063 6.02017 7.93031 6.0221C7.91998 6.0242 7.90966 6.0268 7.89984 6.02982C7.88969 6.03301 7.87962 6.03645 7.86996 6.04056C7.86031 6.04459 7.85083 6.04912 7.8416 6.05408C7.83237 6.05903 7.82314 6.0644 7.81432 6.07019C7.80576 6.07598 7.79712 6.08219 7.78898 6.0889C7.78084 6.09553 7.77287 6.10283 7.76531 6.11014C7.75801 6.11769 7.75096 6.12558 7.74408 6.1338C7.73762 6.14194 7.73116 6.1505 7.72536 6.15915C7.71957 6.16796 7.7142 6.17694 7.70925 6.18642C7.7043 6.19565 7.69985 6.20514 7.69574 6.2147C7.69163 6.22444 7.68819 6.23451 7.68525 6.24441C7.68198 6.25448 7.67946 6.26481 7.67744 6.27513C7.67535 6.28545 7.67358 6.29594 7.67274 6.30652C7.67165 6.31676 7.67107 6.3275 7.67107 6.33807C7.67107 6.42292 7.70539 6.50609 7.76531 6.56601C7.77287 6.57331 7.78084 6.58061 7.78898 6.58724C7.79712 6.59387 7.80576 6.60016 7.81432 6.60587C7.82314 6.61175 7.83237 6.61712 7.8416 6.62198C7.85083 6.62694 7.86031 6.63147 7.86996 6.63558C7.87962 6.63961 7.88969 6.64313 7.89984 6.64607C7.90966 6.64934 7.91998 6.65186 7.93031 6.65404C7.94063 6.65597 7.95112 6.65765 7.96169 6.65858C7.97202 6.65958 7.98276 6.66025 7.99325 6.66025Z" fill="#333333"/>
    <path d="M9.15633 6.46415C9.16691 6.46415 9.17765 6.46373 9.18814 6.46264C9.19863 6.46154 9.20921 6.46003 9.21953 6.45794C9.2296 6.45575 9.23992 6.45324 9.24999 6.45021C9.26006 6.44719 9.26997 6.4435 9.27962 6.43947C9.28935 6.43561 9.299 6.43091 9.30824 6.42613C9.31747 6.42118 9.3267 6.41564 9.33526 6.40985C9.34407 6.40397 9.35271 6.39776 9.36086 6.39113C9.369 6.38442 9.37697 6.3772 9.38427 6.36982C9.39174 6.36235 9.39887 6.35437 9.4055 6.34623C9.41222 6.33809 9.41843 6.3297 9.42439 6.32089C9.43026 6.31208 9.43563 6.30301 9.4405 6.29378C9.44545 6.28455 9.44998 6.2749 9.45409 6.26525C9.45795 6.2556 9.46156 6.24544 9.46458 6.23554C9.46761 6.22547 9.47021 6.21523 9.47231 6.20482C9.47449 6.19458 9.476 6.18401 9.47709 6.17369C9.4781 6.1632 9.47852 6.15245 9.47852 6.14196C9.47852 6.13139 9.4781 6.1209 9.47709 6.11032C9.476 6.09983 9.47449 6.08934 9.47231 6.07902C9.47021 6.0687 9.46761 6.05838 9.46458 6.04847C9.46156 6.0384 9.45795 6.0285 9.45409 6.01885C9.44998 6.00895 9.44545 5.99955 9.4405 5.99023C9.43563 5.981 9.43026 5.97185 9.42439 5.96321C9.41843 5.9544 9.41222 5.94584 9.4055 5.93769C9.39887 5.92947 9.39174 5.92158 9.38427 5.9142C9.37697 5.90673 9.369 5.89959 9.36086 5.89271C9.35271 5.88633 9.34407 5.87987 9.33526 5.87408C9.3267 5.86829 9.31747 5.86292 9.30824 5.85797C9.299 5.85302 9.28935 5.84848 9.27962 5.84437C9.26997 5.84034 9.26006 5.8369 9.24999 5.83363C9.23992 5.83069 9.2296 5.82809 9.21953 5.82599C9.20921 5.82406 9.19863 5.8223 9.18814 5.82146C9.16708 5.81928 9.14584 5.81928 9.12478 5.82146C9.1142 5.8223 9.10371 5.82406 9.09339 5.82599C9.08332 5.82809 9.073 5.83069 9.06293 5.83363C9.05277 5.8369 9.04295 5.84034 9.03322 5.84437C9.02357 5.84848 9.01392 5.85302 9.00468 5.85797C8.99545 5.86292 8.98622 5.86829 8.97766 5.87408C8.96885 5.87987 8.96021 5.88633 8.95206 5.89271C8.94392 5.89959 8.93595 5.90673 8.92865 5.9142C8.9211 5.92158 8.91405 5.92947 8.90742 5.93769C8.9007 5.94584 8.89424 5.9544 8.88845 5.96321C8.88266 5.97177 8.87729 5.981 8.87234 5.99023C8.86747 5.99955 8.86294 6.00895 8.85883 6.01885C8.85497 6.0285 8.85136 6.0384 8.84834 6.04847C8.84506 6.05838 8.84254 6.0687 8.84061 6.07902C8.83843 6.08926 8.83692 6.09983 8.83583 6.11032C8.83474 6.1209 8.83415 6.13139 8.83415 6.14196C8.83415 6.15245 8.83474 6.1632 8.83583 6.17369C8.83692 6.18401 8.83843 6.19458 8.84061 6.20482C8.84254 6.21515 8.84506 6.22547 8.84834 6.23554C8.85136 6.24544 8.85497 6.2556 8.85883 6.26525C8.86294 6.2749 8.86747 6.28455 8.87234 6.29378C8.87729 6.30301 8.88266 6.31208 8.88845 6.32089C8.89424 6.3297 8.9007 6.33809 8.90742 6.34623C8.91405 6.35437 8.9211 6.36235 8.92865 6.36982C8.93595 6.3772 8.94392 6.3845 8.95206 6.39113C8.96021 6.39776 8.96885 6.40406 8.97766 6.40985C8.98622 6.41564 8.99545 6.42118 9.00468 6.42613C9.01392 6.43091 9.02357 6.43561 9.03322 6.43947C9.04295 6.4435 9.05277 6.44719 9.06293 6.45021C9.073 6.45324 9.08332 6.45575 9.09339 6.45794C9.10371 6.46003 9.1142 6.46154 9.12478 6.46264C9.13527 6.46373 9.14584 6.46415 9.15633 6.46415Z" fill="#333333"/>
    <path d="M8.27881 5.47166C8.28938 5.47166 8.30013 5.47107 8.31062 5.4699C8.32094 5.46906 8.33143 5.46738 8.34175 5.46545C8.35207 5.46327 8.3624 5.46066 8.37247 5.45748C8.38237 5.45445 8.39244 5.45101 8.40209 5.44699C8.41183 5.44287 8.42148 5.43834 8.43071 5.43347C8.43994 5.42852 8.44892 5.42315 8.45773 5.41736C8.46655 5.41149 8.47519 5.40511 8.48308 5.39839C8.49147 5.39176 8.49919 5.38463 8.50674 5.37716C8.5143 5.36986 8.52135 5.36189 8.52798 5.35375C8.53469 5.34552 8.5409 5.33696 8.54669 5.32815C8.55248 5.31959 8.55811 5.31036 8.56306 5.30113C8.56792 5.29189 8.57246 5.28241 8.57632 5.27276C8.58043 5.26286 8.58404 5.25304 8.58706 5.24288C8.59008 5.23306 8.59268 5.22274 8.59478 5.21242C8.59696 5.2021 8.59847 5.19152 8.59956 5.18103C8.60065 5.17054 8.60107 5.15997 8.60107 5.14948C8.60107 5.1389 8.60065 5.12816 8.59956 5.11767C8.59847 5.10735 8.59696 5.09677 8.59478 5.08653C8.59268 5.07621 8.59008 5.06589 8.58706 5.05582C8.58404 5.04592 8.58043 5.03584 8.57632 5.02619C8.57246 5.01646 8.56792 5.00681 8.56306 4.99758C8.55811 4.98834 8.55248 4.97928 8.54669 4.97047C8.5409 4.96174 8.53469 4.9531 8.52798 4.94512C8.52135 4.93698 8.5143 4.92901 8.50674 4.92154C8.49919 4.91399 8.49147 4.90694 8.48308 4.90022C8.47519 4.89359 8.46655 4.88738 8.45773 4.88159C8.44892 4.8758 8.43994 4.87018 8.43071 4.86523C8.42148 4.86028 8.41183 4.85583 8.40209 4.85197C8.39244 4.84786 8.38237 4.84416 8.37247 4.84123C8.3624 4.83821 8.35207 4.8356 8.34175 4.83342C8.33143 4.83149 8.32094 4.82981 8.31062 4.82872C8.28955 4.82662 8.26832 4.82662 8.24725 4.82872C8.23676 4.82981 8.22619 4.83149 8.21587 4.83342C8.20554 4.8356 8.1953 4.83821 8.1854 4.84123C8.17533 4.84416 8.16543 4.84786 8.15578 4.85197C8.14604 4.85583 8.13639 4.86028 8.12716 4.86523C8.11793 4.87018 8.1087 4.8758 8.10014 4.88159C8.09132 4.88738 8.08268 4.89359 8.07454 4.90022C8.0664 4.90694 8.05843 4.91399 8.05112 4.92154C8.04366 4.92901 8.03652 4.93698 8.02989 4.94512C8.02318 4.9531 8.0168 4.96174 8.01093 4.97047C8.00513 4.97928 7.99976 4.98834 7.9949 4.99758C7.98994 5.00681 7.98541 5.01646 7.9813 5.02619C7.97744 5.03584 7.97383 5.04592 7.97081 5.05582C7.96754 5.06589 7.96502 5.07621 7.96309 5.08653C7.96091 5.09677 7.9594 5.10735 7.95831 5.11767C7.9573 5.12816 7.95663 5.1389 7.95663 5.14948C7.95663 5.23432 7.99095 5.31724 8.05112 5.37716C8.05843 5.38471 8.0664 5.39176 8.07454 5.39839C8.08268 5.40511 8.09132 5.41149 8.10014 5.41736C8.1087 5.42315 8.11793 5.42852 8.12716 5.43347C8.13639 5.43834 8.14604 5.44287 8.15578 5.44699C8.16543 5.45101 8.17533 5.45445 8.1854 5.45748C8.1953 5.46066 8.20554 5.46327 8.21587 5.46545C8.22619 5.46738 8.23676 5.46906 8.24725 5.4699C8.25774 5.47107 8.26832 5.47166 8.27881 5.47166Z" fill="#333333"/>
</svg>
