<svg width="18" height="18" viewBox="0 0 18 18" fill="none" xmlns="http://www.w3.org/2000/svg">
    <circle cx="9" cy="9" r="9" fill="#EBEBEB"/>
    <path d="M15.2971 2.12061L10.7556 6.66211C10.667 6.26981 10.4803 5.84688 10.1969 5.39874C9.99286 5.07601 9.64313 4.88332 9.26138 4.88334C9.13361 4.88334 9.00963 4.90538 8.89328 4.94623C8.82632 4.50428 8.62821 4.02043 8.30096 3.50284C8.0969 3.1801 7.7472 2.98741 7.36545 2.98741C6.9837 2.98741 6.634 3.1801 6.42988 3.50284C6.28023 3.73958 6.15778 3.96918 6.06222 4.19105C5.97176 4.04824 5.86898 3.9151 5.75192 3.79801C5.37955 3.42562 4.81102 3.15125 4.0621 2.98248C3.6896 2.89857 3.30605 3.00961 3.03611 3.27952C2.7662 3.54946 2.6551 3.93295 2.73907 4.30551C2.90781 5.05441 3.18221 5.62294 3.55458 5.9953C3.67152 6.11225 3.8045 6.21493 3.94715 6.3053C3.72569 6.40078 3.49658 6.52298 3.2603 6.67234C2.93756 6.87637 2.7449 7.2261 2.7449 7.60788C2.7449 7.98965 2.93759 8.33935 3.26033 8.54342C3.77795 8.87067 4.26179 9.06877 4.70372 9.13574C4.6629 9.25208 4.64086 9.37606 4.64086 9.50387C4.64086 9.88561 4.83355 10.2353 5.15629 10.4394C5.60446 10.7227 6.02735 10.9095 6.41966 10.998L2.12059 15.2971C1.9598 15.4579 1.9598 15.7186 2.12059 15.8794C2.28137 16.0402 2.54209 16.0402 2.7029 15.8794L6.66712 11.9152C6.75579 12.0867 6.88918 12.2347 7.05906 12.3421C7.70793 12.7524 8.30394 12.9604 8.83058 12.9604C9.73107 12.9604 10.6688 12.3304 11.1382 11.9639L14.221 15.0467C14.3818 15.2075 14.6425 15.2075 14.8033 15.0467C14.8837 14.9663 14.9239 14.8609 14.9239 14.7555C14.9239 14.6502 14.8837 14.5447 14.8033 14.4644L11.7206 11.3817C12.087 10.9126 12.7179 9.97423 12.7179 9.07306C12.7179 8.54642 12.5099 7.95041 12.0997 7.30152C11.9923 7.13166 11.8443 6.99827 11.6727 6.9096L15.8794 2.70295C15.9598 2.62253 16 2.51712 16 2.41174C16 2.30636 15.9598 2.20097 15.8794 2.12058C15.7186 1.9598 15.4579 1.9598 15.2971 2.12061ZM4.13692 5.41299C3.8801 5.15618 3.67453 4.71061 3.54249 4.1245C3.53729 4.1015 3.53505 4.07979 3.53505 4.05939C3.53505 3.95786 3.59086 3.88948 3.61848 3.86183C3.65167 3.82867 3.74366 3.75489 3.88111 3.78585C4.46726 3.91792 4.9128 4.12346 5.16961 4.38027C5.56626 4.77692 5.76012 5.54036 5.84207 6.08543C5.29689 6.00345 4.53356 5.80961 4.13692 5.41299ZM6.63521 5.27433C6.63521 4.91115 6.80493 4.45074 7.12597 3.94291C7.20133 3.82377 7.31858 3.81089 7.36548 3.81089C7.41237 3.81089 7.52959 3.82377 7.6049 3.94288C7.92597 4.45074 8.09569 4.91112 8.09569 5.27433C8.09569 5.83529 7.69292 6.51221 7.36545 6.95556C7.0379 6.51207 6.63521 5.83521 6.63521 5.27433ZM3.70048 7.84735C3.58135 7.77202 3.56847 7.65477 3.56847 7.6079C3.56847 7.56104 3.58135 7.44379 3.70045 7.36845C4.20834 7.04738 4.6687 6.87766 5.0319 6.87766C5.59286 6.87766 6.26978 7.28041 6.71314 7.60788C6.26965 7.93545 5.59278 8.33812 5.0319 8.33812C4.6687 8.33812 4.20831 8.16842 3.70048 7.84735ZM5.59644 9.74331C5.47731 9.66798 5.46443 9.55076 5.46443 9.50387C5.46443 9.45697 5.47731 9.33975 5.59642 9.26442C6.10427 8.94332 6.56463 8.77362 6.92787 8.77362C7.33318 8.77362 7.79899 8.98392 8.19356 9.22411L7.21479 10.2029C7.11706 10.2228 7.02084 10.2341 6.92787 10.2341C6.56466 10.2341 6.10425 10.0644 5.59644 9.74331ZM10.5119 11.4066C10.0684 11.7341 9.39151 12.1368 8.83064 12.1368C8.4674 12.1368 8.00702 11.9671 7.49922 11.646C7.38008 11.5707 7.3672 11.4534 7.3672 11.4066C7.3672 11.3597 7.38008 11.2424 7.49919 11.1671C8.00704 10.846 8.4674 10.6763 8.83064 10.6763C9.3916 10.6763 10.0685 11.0791 10.5119 11.4066ZM11.4036 7.74159C11.7247 8.24944 11.8944 8.70983 11.8944 9.07304C11.8944 9.63399 11.4917 10.3109 11.1642 10.7543C10.8366 10.3108 10.4339 9.63391 10.4339 9.07304C10.4339 8.70986 10.6036 8.24944 10.9247 7.74159C11 7.62248 11.1173 7.6096 11.1641 7.6096C11.2111 7.60963 11.3283 7.62248 11.4036 7.74159ZM9.99168 7.17027C9.99168 7.26324 9.98042 7.35943 9.96048 7.45721L8.98171 8.43598C8.74147 8.04141 8.53122 7.57558 8.53122 7.17029C8.53122 6.80709 8.70095 6.34667 9.02202 5.83884C9.09732 5.71973 9.21457 5.70685 9.26144 5.70685C9.30833 5.70685 9.42556 5.71973 9.50089 5.83884C9.82193 6.34667 9.99168 6.80706 9.99168 7.17027Z" fill="#333333"/>
</svg>
