<svg width="20" height="20" viewBox="0 0 20 20" fill="none" xmlns="http://www.w3.org/2000/svg">
    <path fill-rule="evenodd" clip-rule="evenodd" d="M14.2623 1C12.3467 1 11.0616 1.92764 10.0042 2.93062C8.97652 1.93604 7.73186 1.00047 5.73725 1.00047C4.20946 1.00047 2.74815 1.61917 1.67373 2.71414C0.599945 3.80847 0 5.28873 0 6.82833C0 8.36792 0.599945 9.84819 1.67373 10.9425L9.99977 19.4278L18.3258 10.9425C18.8577 10.4006 19.2787 9.75825 19.5656 9.05259C19.8526 8.34689 20 7.59113 20 6.82833C20 6.06552 19.8526 5.30976 19.5656 4.60406C19.2788 3.89847 18.8578 3.25617 18.326 2.71431C17.7942 2.17208 17.1617 1.74092 16.4643 1.4464C15.7668 1.15186 15.0185 1 14.2623 1Z" fill="#25282B"/>
</svg>
