<svg width="20" height="20" viewBox="0 0 20 20" fill="none" xmlns="http://www.w3.org/2000/svg">
    <path fill-rule="evenodd" clip-rule="evenodd" d="M10.0042 1.93062C11.0616 0.927644 12.3467 0 14.2623 0C15.0185 0 15.7668 0.151857 16.4643 0.446398C17.1617 0.74092 17.7942 1.17208 18.326 1.71431C18.8578 2.25617 19.2788 2.89847 19.5656 3.60406C19.8526 4.30976 20 5.06552 20 5.82833C20 6.59113 19.8526 7.34689 19.5656 8.05259C19.2787 8.75825 18.8577 9.40062 18.3258 9.94252C18.3258 9.94257 18.3259 9.94246 18.3258 9.94252L9.99977 18.4278L1.67373 9.94252C0.599945 8.84819 0 7.36792 0 5.82833C0 4.28873 0.599945 2.80847 1.67373 1.71414C2.74815 0.619169 4.20946 0.000469327 5.73725 0.000469327C7.73186 0.000469327 8.97652 0.936038 10.0042 1.93062ZM14.2623 2C12.821 2 11.9537 2.78129 10.7135 4.04513L9.99977 4.77256L9.286 4.04513C8.04123 2.77656 7.26841 2.00047 5.73725 2.00047C4.75225 2.00047 3.80367 2.39907 3.10128 3.11489C2.39826 3.83136 2 4.80707 2 5.82833C2 6.84959 2.39826 7.82529 3.10128 8.54176L9.99977 15.5722L16.8983 8.54176C17.2463 8.18723 17.5235 7.7651 17.7129 7.29932C17.9023 6.83352 18 6.33361 18 5.82833C18 5.32304 17.9023 4.82314 17.7129 4.35733C17.5235 3.89156 17.2465 3.46959 16.8984 3.11506C16.5506 2.7604 16.1383 2.47975 15.6862 2.28886C15.2342 2.09799 14.7504 2 14.2623 2Z" fill="#25282B"/>
</svg>
